<svg aria-hidden="true" style="position: absolute; width: 0; height: 0; overflow: hidden;" version="1.1" xmlns="http://www.w3.org/2000/svg" xmlns:xlink="http://www.w3.org/1999/xlink">
<defs>
<symbol id="buy" viewBox="0 0 20 20">
<path d="M4 2h16l-3 9h-13c-0.552 0-1 0.448-1 1s0.448 1 1 1v0h13v2h-13c-1.657 0-3-1.343-3-3s1.343-3 3-3v0h0.33l-1.33-4-1-3h-2v-2h3c0.552 0 1 0.448 1 1v0 1zM5 20c-1.105 0-2-0.895-2-2s0.895-2 2-2v0c1.105 0 2 0.895 2 2s-0.895 2-2 2v0zM15 20c-1.105 0-2-0.895-2-2s0.895-2 2-2v0c1.105 0 2 0.895 2 2s-0.895 2-2 2v0z"></path>
</symbol>
<symbol id="profile" viewBox="0 0 35 32">
<path style="" d="M17.497 20.225c9.489 0 17.497 1.082 17.497 5.258 0 4.177-8.060 5.221-17.497 5.221-9.487 0-17.497-1.082-17.497-5.258 0-4.177 8.060-5.221 17.497-5.221zM17.497 0c6.428 0 11.579 3.614 11.579 8.123s-5.15 8.124-11.579 8.124c-6.426 0-11.579-3.615-11.579-8.124s5.153-8.123 11.579-8.123z"></path>
</symbol>
<symbol id="search" viewBox="0 0 44 32">
<path style="" d="M33.922 23.862c0.839-0.585 2.185-0.585 3.024 0l5.548 3.143h0.096c1.122 0.796 1.122 2.087 0 2.884s-2.942 0.796-4.065 0l-4.779-3.842c-0.326-0.289-0.505-0.65-0.505-1.023 0-0.436 0.245-0.854 0.68-1.162zM18.627 0c4.94 0 9.678 1.392 13.172 3.871s5.456 5.84 5.456 9.345c0 7.299-8.34 13.216-18.628 13.216s-18.627-5.917-18.627-13.216c0-7.299 8.34-13.216 18.627-13.216z"></path>
</symbol>
<symbol id="support" viewBox="0 0 40 32">
<path d="M33.753 20.11c-0.188-1.308-1.198-2.328-2.499-2.632-5.054-1.185-6.322-4.095-6.535-7.324-0.896-0.167-2.491-0.347-5.197-0.347s-4.301 0.18-5.198 0.347c-0.214 3.228-1.481 6.139-6.535 7.324-1.3 0.306-2.31 1.324-2.499 2.632l-0.975 6.751c-0.343 2.377 1.402 4.521 3.831 4.521h22.752c2.426 0 4.174-2.144 3.831-4.521l-0.975-6.751zM19.521 26.462c-2.736 0-4.954-2.197-4.954-4.903s2.218-4.903 4.954-4.903 4.954 2.197 4.954 4.903c0 2.707-2.22 4.903-4.954 4.903zM39.037 7.845c-0.047-2.942-7.535-7.843-19.515-7.845-11.982 0.002-19.47 4.903-19.515 7.845s0.041 6.771 4.972 6.133c5.768-0.747 5.413-2.761 5.413-5.641 0-2.008 4.691-2.493 9.13-2.493s9.128 0.484 9.13 2.493c0 2.879-0.355 4.894 5.413 5.641 4.929 0.637 5.017-3.191 4.972-6.133z"></path>
</symbol>
<symbol id="heart" viewBox="0 0 35 32">
<path d="M0.12 10.101c-0-1.247 0.248-2.482 0.731-3.632s1.189-2.193 2.079-3.066c0.89-0.874 1.945-1.561 3.104-2.023s2.398-0.687 3.645-0.664c1.476-0.008 2.936 0.298 4.284 0.897s2.554 1.478 3.537 2.579c0.983-1.1 2.189-1.979 3.537-2.579s2.809-0.905 4.284-0.897c1.247-0.023 2.486 0.203 3.645 0.664s2.214 1.149 3.104 2.023c0.89 0.874 1.597 1.916 2.079 3.066s0.731 2.385 0.731 3.632c0 9.309-11.087 16.337-17.38 21.899-6.279-5.609-17.38-12.583-17.38-21.899z"></path>
</symbol>
</defs>
</svg>
