<svg aria-hidden="true" style="position: absolute; width: 0; height: 0; overflow: hidden;" version="1.1" xmlns="http://www.w3.org/2000/svg" xmlns:xlink="http://www.w3.org/1999/xlink">
<defs>
<symbol id="buy" viewBox="0 0 20 20">
<path d="M4 2h16l-3 9h-13c-0.552 0-1 0.448-1 1s0.448 1 1 1v0h13v2h-13c-1.657 0-3-1.343-3-3s1.343-3 3-3v0h0.33l-1.33-4-1-3h-2v-2h3c0.552 0 1 0.448 1 1v0 1zM5 20c-1.105 0-2-0.895-2-2s0.895-2 2-2v0c1.105 0 2 0.895 2 2s-0.895 2-2 2v0zM15 20c-1.105 0-2-0.895-2-2s0.895-2 2-2v0c1.105 0 2 0.895 2 2s-0.895 2-2 2v0z"></path>
</symbol>
<symbol id="profile" viewBox="0 0 35 32">
<path style="" d="M17.497 20.225c9.489 0 17.497 1.082 17.497 5.258 0 4.177-8.060 5.221-17.497 5.221-9.487 0-17.497-1.082-17.497-5.258 0-4.177 8.060-5.221 17.497-5.221zM17.497 0c6.428 0 11.579 3.614 11.579 8.123s-5.15 8.124-11.579 8.124c-6.426 0-11.579-3.615-11.579-8.124s5.153-8.123 11.579-8.123z"></path>
</symbol>
<symbol id="search" viewBox="0 0 44 32">
<path style="" d="M33.922 23.862c0.839-0.585 2.185-0.585 3.024 0l5.548 3.143h0.096c1.122 0.796 1.122 2.087 0 2.884s-2.942 0.796-4.065 0l-4.779-3.842c-0.326-0.289-0.505-0.65-0.505-1.023 0-0.436 0.245-0.854 0.68-1.162zM18.627 0c4.94 0 9.678 1.392 13.172 3.871s5.456 5.84 5.456 9.345c0 7.299-8.34 13.216-18.628 13.216s-18.627-5.917-18.627-13.216c0-7.299 8.34-13.216 18.627-13.216z"></path>
</symbol>
<symbol id="support" viewBox="0 0 40 32">
<path d="M33.753 20.11c-0.188-1.308-1.198-2.328-2.499-2.632-5.054-1.185-6.322-4.095-6.535-7.324-0.896-0.167-2.491-0.347-5.197-0.347s-4.301 0.18-5.198 0.347c-0.214 3.228-1.481 6.139-6.535 7.324-1.3 0.306-2.31 1.324-2.499 2.632l-0.975 6.751c-0.343 2.377 1.402 4.521 3.831 4.521h22.752c2.426 0 4.174-2.144 3.831-4.521l-0.975-6.751zM19.521 26.462c-2.736 0-4.954-2.197-4.954-4.903s2.218-4.903 4.954-4.903 4.954 2.197 4.954 4.903c0 2.707-2.22 4.903-4.954 4.903zM39.037 7.845c-0.047-2.942-7.535-7.843-19.515-7.845-11.982 0.002-19.47 4.903-19.515 7.845s0.041 6.771 4.972 6.133c5.768-0.747 5.413-2.761 5.413-5.641 0-2.008 4.691-2.493 9.13-2.493s9.128 0.484 9.13 2.493c0 2.879-0.355 4.894 5.413 5.641 4.929 0.637 5.017-3.191 4.972-6.133z"></path>
</symbol>
<symbol id="heart" viewBox="0 0 32 32">
<path d="M0.237 12.089c0-1.185 0.237-2.133 0.711-3.319 0.474-0.948 1.185-1.896 1.896-2.844 0.711-0.711 1.659-1.185 2.844-1.659 0.948-0.474 2.133-0.711 3.319-0.711 1.422 0 2.607 0.237 3.793 0.711s2.37 1.422 3.081 2.37c0.948-0.948 1.896-1.896 3.081-2.37s2.607-0.711 3.793-0.711c1.185 0 2.133 0.237 3.319 0.711 1.422 0.474 2.37 0.948 3.081 1.896 0.711 0.711 1.422 1.659 1.896 2.844 0.474 0.948 0.711 2.133 0.711 3.319 0 8.533-9.956 14.696-15.644 19.911-5.689-5.452-15.881-11.615-15.881-20.148z"></path>
</symbol>
<symbol id="arrow" viewBox="0 0 35 32">
<path fill="#fff" style="fill: var(--color1, #fff); stroke: var(--color1, #fff)" stroke="#fff" stroke-linejoin="miter" stroke-linecap="butt" stroke-miterlimit="4" stroke-width="2.0994" d="M12.974 1.973l-0.712-0.661-3.753 3.464 11.301 10.432-11.301 10.432 3.753 3.464 14.974-13.896-14.262-13.235z"></path>
</symbol>
<symbol id="arrow-bot" viewBox="0 0 51 32">
<path d="M2.375 0h47.13c1.414 0 2.203 1.493 1.328 2.512l-23.565 27.325c-0.674 0.782-1.973 0.782-2.655 0l-23.565-27.325c-0.875-1.019-0.086-2.512 1.328-2.512z"></path>
</symbol>
<symbol id="facebook" viewBox="0 0 32 32">
<path d="M0 15.95c0 7.886 5.727 14.444 13.218 15.773v-11.456h-3.965v-4.406h3.965v-3.525c0-3.965 2.555-6.168 6.169-6.168 1.145 0 2.379 0.176 3.524 0.352v4.054h-2.026c-1.939 0-2.379 0.969-2.379 2.203v3.084h4.23l-0.705 4.406h-3.525v11.456c7.491-1.33 13.218-7.886 13.218-15.773 0-8.773-7.138-15.95-15.862-15.95s-15.862 7.177-15.862 15.95z"></path>
</symbol>
<symbol id="pinterest" viewBox="0 0 32 32">
<path d="M0 15.862c0 6.772 4.244 12.553 10.218 14.828-0.145-1.238-0.3-3.281 0.033-4.713 0.287-1.232 1.852-7.849 1.852-7.849s-0.472-0.945-0.472-2.345c0-2.194 1.272-3.833 2.856-3.833 1.348 0 1.999 1.011 1.999 2.223 0 1.355-0.863 3.38-1.309 5.258-0.371 1.572 0.789 2.854 2.338 2.854 2.806 0 4.965-2.96 4.965-7.232 0-3.782-2.718-6.424-6.597-6.424-4.492 0-7.129 3.369-7.129 6.852 0 1.358 0.522 2.811 1.175 3.603 0.056 0.060 0.095 0.133 0.114 0.212s0.018 0.162-0.005 0.241c-0.12 0.5-0.387 1.572-0.439 1.791-0.070 0.288-0.229 0.35-0.529 0.21-1.972-0.917-3.204-3.8-3.204-6.116 0-4.982 3.618-9.555 10.432-9.555 5.478 0 9.735 3.903 9.735 9.119 0 5.442-3.43 9.822-8.194 9.822-1.601 0-3.104-0.833-3.619-1.815 0 0-0.792 3.016-0.983 3.754-0.373 1.433-1.406 3.246-2.047 4.276 1.478 0.455 3.045 0.699 4.671 0.699 8.76 0 15.862-7.102 15.862-15.862s-7.102-15.862-15.862-15.862c-8.76 0-15.862 7.102-15.862 15.862z"></path>
</symbol>
<symbol id="twitter" viewBox="0 0 32 32">
<path d="M15.862 0c-8.76 0-15.862 7.101-15.862 15.862s7.101 15.862 15.862 15.862c8.76 0 15.862-7.101 15.862-15.862s-7.101-15.862-15.862-15.862zM22.314 12.993c0.007 0.136 0.008 0.271 0.008 0.403 0 4.131-3.141 8.891-8.888 8.891-1.698 0.003-3.361-0.485-4.788-1.404 0.243 0.030 0.492 0.041 0.745 0.041 1.464 0 2.811-0.497 3.88-1.337-0.651-0.013-1.283-0.229-1.806-0.617s-0.912-0.931-1.112-1.551c0.468 0.089 0.95 0.070 1.409-0.055-0.707-0.143-1.343-0.526-1.8-1.084s-0.707-1.257-0.707-1.979v-0.038c0.421 0.233 0.904 0.375 1.416 0.392-0.663-0.441-1.132-1.119-1.312-1.895s-0.056-1.591 0.345-2.279c0.785 0.965 1.763 1.754 2.873 2.317s2.324 0.886 3.566 0.95c-0.158-0.67-0.090-1.374 0.193-2.002s0.766-1.144 1.373-1.469c0.607-0.325 1.305-0.44 1.984-0.328s1.303 0.446 1.773 0.949c0.699-0.138 1.37-0.395 1.983-0.758-0.233 0.724-0.721 1.339-1.373 1.73 0.619-0.075 1.224-0.241 1.794-0.494-0.419 0.628-0.947 1.175-1.558 1.618z"></path>
</symbol>
<symbol id="instagram" viewBox="0 0 32 32">
<path d="M31.723 15.862c0 8.76-7.102 15.862-15.862 15.862s-15.862-7.102-15.862-15.862c0-8.76 7.102-15.862 15.862-15.862s15.862 7.102 15.862 15.862z"></path>
<path fill="#fff" style="fill: var(--color2, #fff)" d="M15.785 7.855c2.155 0 2.424 0.008 3.269 0.048s1.42 0.172 1.926 0.369c0.523 0.201 0.964 0.474 1.405 0.914 0.403 0.396 0.715 0.876 0.914 1.405 0.196 0.505 0.329 1.081 0.369 1.926 0.037 0.845 0.048 1.114 0.048 3.269s-0.008 2.424-0.048 3.269c-0.040 0.845-0.173 1.42-0.369 1.926-0.199 0.53-0.511 1.009-0.914 1.405-0.397 0.403-0.876 0.715-1.405 0.914-0.505 0.196-1.081 0.329-1.926 0.369-0.845 0.037-1.114 0.048-3.269 0.048s-2.424-0.008-3.269-0.048c-0.845-0.040-1.42-0.173-1.926-0.369-0.53-0.199-1.009-0.511-1.405-0.914-0.403-0.396-0.715-0.876-0.914-1.405-0.197-0.505-0.329-1.081-0.369-1.926-0.037-0.845-0.048-1.114-0.048-3.269s0.008-2.424 0.048-3.269c0.040-0.845 0.172-1.42 0.369-1.926 0.198-0.53 0.511-1.009 0.914-1.405 0.396-0.403 0.876-0.716 1.405-0.914 0.506-0.197 1.080-0.329 1.926-0.369 0.845-0.037 1.114-0.048 3.269-0.048zM15.785 11.82c-1.052 0-2.060 0.418-2.804 1.161s-1.161 1.752-1.161 2.804c0 1.052 0.418 2.060 1.161 2.804s1.752 1.161 2.804 1.161c1.052 0 2.060-0.418 2.804-1.161s1.161-1.752 1.161-2.804c0-1.052-0.418-2.060-1.161-2.804s-1.752-1.161-2.804-1.161zM20.94 11.622c0-0.263-0.104-0.515-0.29-0.701s-0.438-0.29-0.701-0.29c-0.263 0-0.515 0.104-0.701 0.29s-0.29 0.438-0.29 0.701c0 0.263 0.104 0.515 0.29 0.701s0.438 0.29 0.701 0.29c0.263 0 0.515-0.104 0.701-0.29s0.29-0.438 0.29-0.701zM15.785 13.406c0.631 0 1.236 0.251 1.682 0.697s0.697 1.051 0.697 1.682c0 0.631-0.251 1.236-0.697 1.682s-1.051 0.697-1.682 0.697c-0.631 0-1.236-0.251-1.682-0.697s-0.697-1.051-0.697-1.682c0-0.631 0.251-1.236 0.697-1.682s1.051-0.697 1.682-0.697z"></path>
</symbol>
<symbol id="instagram-logo" viewBox="0 0 32 32">
<path d="M15.838 7.713c-4.498 0-8.128 3.63-8.128 8.128s3.63 8.128 8.128 8.128c4.498 0 8.128-3.63 8.128-8.128s-3.63-8.128-8.128-8.128zM15.838 21.125c-2.909 0-5.283-2.374-5.283-5.283s2.374-5.283 5.283-5.283c2.909 0 5.283 2.374 5.283 5.283s-2.374 5.283-5.283 5.283zM24.299 5.486c-1.050 0-1.898 0.848-1.898 1.898s0.848 1.898 1.898 1.898c1.050 0 1.898-0.844 1.898-1.898 0-0.249-0.049-0.496-0.144-0.727s-0.235-0.44-0.411-0.616c-0.176-0.176-0.386-0.316-0.616-0.411s-0.477-0.144-0.727-0.144zM31.683 15.842c0-2.188 0.020-4.355-0.103-6.539-0.123-2.536-0.701-4.787-2.556-6.642-1.859-1.859-4.106-2.433-6.642-2.556-2.188-0.123-4.356-0.103-6.539-0.103-2.188 0-4.355-0.020-6.539 0.103-2.536 0.123-4.787 0.701-6.642 2.556-1.859 1.859-2.433 4.106-2.556 6.642-0.123 2.188-0.103 4.355-0.103 6.539s-0.020 4.355 0.103 6.539c0.123 2.536 0.701 4.787 2.556 6.642 1.859 1.859 4.106 2.433 6.642 2.556 2.188 0.123 4.355 0.103 6.539 0.103 2.188 0 4.355 0.020 6.539-0.103 2.536-0.123 4.788-0.701 6.642-2.556 1.859-1.859 2.433-4.106 2.556-6.642 0.127-2.184 0.103-4.352 0.103-6.539zM28.195 25.187c-0.289 0.721-0.638 1.26-1.197 1.815-0.559 0.559-1.094 0.908-1.815 1.197-2.085 0.828-7.035 0.642-9.345 0.642s-7.265 0.186-9.349-0.638c-0.721-0.289-1.26-0.638-1.815-1.197-0.559-0.559-0.908-1.094-1.197-1.815-0.824-2.089-0.638-7.038-0.638-9.349s-0.186-7.264 0.638-9.349c0.289-0.721 0.638-1.26 1.197-1.815s1.094-0.908 1.815-1.197c2.085-0.824 7.039-0.638 9.349-0.638s7.264-0.186 9.349 0.638c0.721 0.289 1.26 0.638 1.815 1.197 0.559 0.559 0.908 1.094 1.197 1.815 0.824 2.085 0.638 7.039 0.638 9.349s0.186 7.261-0.642 9.345z"></path>
</symbol>
</defs>
</svg>
